<svg xmlns="http://www.w3.org/2000/svg" viewBox="0 0 1346 1665.538"><path d="M1319.518 364.087V702.15h-179.293c12.354-19.857 23.36-39.528 32.993-58.947h87.352V423.034H782.078V260.752c16.775-12.143 36.311-22.442 58.947-29.162v132.497h478.493z"/><path d="M1083.678 643.202c-11.225 19.284-23.992 38.931-38.324 58.947H841.025v930.619h-336.05v-609.162c19.604 16.834 39.309 33.39 58.947 49.617v500.598h218.156V643.202h301.6z"/><path d="M563.922 643.202V970.15c-19.63-16.775-39.377-34.021-58.947-51.621V702.15H26.482V364.087h109.945c-6.039 20.708-9.814 40.236-11.823 58.947H85.429v220.168h478.493z"/><path d="M841.025 32.769v117.406c-20.489 4.202-40.168 10.636-58.947 19.293V91.716H563.922v331.318H204.166c2.801-19.893 8.419-40.655 15.512-58.947h285.297V32.769h336.05zM1211.01 435.669h-55.4c10.27 180.12-167.71 370.6-301.95 491.54v73.69c161.58-139.38 367.61-353.19 357.35-565.23zM769.45 999.499v71.02c-42.99 34.14-75.88 58.43-97.68 74.65-149.56-119.22-337.2-272.7-444.6-430.39h67.96c97.03 129.15 251.84 259.64 377.76 360.59 33.9-25.57 66.09-50.87 96.56-75.87z"/><path d="M492.343 162.057v56.261C275.089 170.43 102.004 378.921 240.099 630.571h-62.181C49.525 365.642 229.98 114.961 492.343 162.057zM1194.962 351.455h-59.217c-66.253-151.685-330.617-218.459-438.787-6.198l-24.598 48.269c-27.545-53.979-46.666-99.201-95.806-136.657v-65.432c35.817 19.61 68.524 48.324 95.739 87.419 142.322-205.911 451.45-135.813 522.669 72.599z"/></svg>
